<?xml version="1.0" encoding="UTF-8" standalone="no"?>
<svg width="48px" height="42px" viewBox="0 0 48 42" version="1.1" xmlns="http://www.w3.org/2000/svg" xmlns:xlink="http://www.w3.org/1999/xlink">
    <!-- Generator: Sketch 49 (51002) - http://www.bohemiancoding.com/sketch -->
    <title>xhtmlKit</title>
    <desc>Created with Sketch.</desc>
    <defs></defs>
    <g id="Page-1" stroke="none" stroke-width="1" fill="none" fill-rule="evenodd">
        <g id="xhtmlKit">
            <path d="M33.9297424,12 C33.2271852,13.214512 32.214512,14.2271852 31,14.9297424 L31,12 L33.9297424,12 Z M34.9381062,9 L31,9 L31,7 C31,4.790861 29.209139,3 27,3 L21,3 C18.790861,3 17,4.790861 17,7 L17,9 L13.0618938,9 C13.0210433,8.67240576 13,8.33866035 13,8 C13,3.581722 16.581722,8.11624501e-16 21,0 L27,0 C31.418278,-8.11624501e-16 35,3.581722 35,8 C35,8.33866035 34.9789567,8.67240576 34.9381062,9 Z M14.0702576,12 L17,12 L17,14.9297424 C15.785488,14.2271852 14.7728148,13.214512 14.0702576,12 Z" id="Combined-Shape" fill="#FCA604"></path>
            <rect id="Rectangle" fill="#FCA604" x="0" y="12" width="48" height="30" rx="5"></rect>
            <path d="M17,35.6012223 L8,27.8073872 L8,25.7244023 L17,18 L17,20.4995819 L9.78074866,26.8526858 L17,33.0495658 L17,35.6012223 Z M29,17 L21.7407895,38 L20,38 L27.2236842,17 L29,17 Z M41,27.8073872 L32,35.6012223 L32,33.0495658 L39.2192513,26.8526858 L32,20.4995819 L32,18 L41,25.7244023 L41,27.8073872 Z" id="&lt;/&gt;" fill="#FFFFFF"></path>
        </g>
    </g>
</svg>