<?xml version="1.0" encoding="UTF-8" standalone="no"?>
<svg width="48px" height="42px" viewBox="0 0 48 42" version="1.1" xmlns="http://www.w3.org/2000/svg" xmlns:xlink="http://www.w3.org/1999/xlink">
    <!-- Generator: Sketch 48.2 (47327) - http://www.bohemiancoding.com/sketch -->
    <title>medical kit</title>
    <desc>Created with Sketch.</desc>
    <defs></defs>
    <g id="Page-1" stroke="none" stroke-width="1" fill="none" fill-rule="evenodd">
        <g id="medical-kit">
            <path d="M33.9297424,12 C33.2271852,13.214512 32.214512,14.2271852 31,14.9297424 L31,12 L33.9297424,12 Z M34.9381062,9 L31,9 L31,7 C31,4.790861 29.209139,3 27,3 L21,3 C18.790861,3 17,4.790861 17,7 L17,9 L13.0618938,9 C13.0210433,8.67240576 13,8.33866035 13,8 C13,3.581722 16.581722,8.11624501e-16 21,0 L27,0 C31.418278,-8.11624501e-16 35,3.581722 35,8 C35,8.33866035 34.9789567,8.67240576 34.9381062,9 Z M14.0702576,12 L17,12 L17,14.9297424 C15.785488,14.2271852 14.7728148,13.214512 14.0702576,12 Z" id="Combined-Shape" fill="#FCA604"></path>
            <rect id="Rectangle" fill="#FCA604" x="0" y="12" width="48" height="30" rx="5"></rect>
            <rect id="Rectangle-2" fill="#FFFFFF" x="0" y="20" width="48" height="2"></rect>
            <path d="M12.7841797,32.5751953 L13.25,33.1245117 L13.7553711,32.5751953 C13.6586909,32.5751953 13.5883791,32.5407718 13.5444336,32.4719238 C13.5004881,32.4030758 13.4785156,32.2939461 13.4785156,32.1445312 C13.4785156,31.9980461 13.5158688,31.8859867 13.5905762,31.8083496 C13.6652836,31.7307125 13.7744133,31.6918945 13.9179688,31.6918945 L14.8540039,31.6918945 C15.050294,31.6918945 15.1909175,31.7299801 15.2758789,31.8061523 C15.3608403,31.8823246 15.4033203,32.0068351 15.4033203,32.1796875 C15.4033203,32.3408211 15.3615727,32.4602047 15.2780762,32.5378418 C15.1945797,32.6154789 15.0649423,32.6542969 14.8891602,32.6542969 L14.7177734,32.6542969 L13.7993164,33.65625 L14.8979492,34.78125 L14.9990234,34.78125 C15.1689462,34.78125 15.2971187,34.8215328 15.3835449,34.9020996 C15.4699711,34.9826664 15.5131836,35.1035148 15.5131836,35.2646484 C15.5131836,35.4375009 15.4685063,35.5620113 15.3791504,35.6381836 C15.2897945,35.7143558 15.1455088,35.7524414 14.9462891,35.7524414 L13.8828125,35.7524414 C13.7392571,35.7524414 13.6301273,35.7136234 13.5554199,35.6359863 C13.4807125,35.5583492 13.4433594,35.4477546 13.4433594,35.3041992 C13.4433594,35.1518547 13.4660642,35.0412601 13.5114746,34.9724121 C13.556885,34.9035641 13.629394,34.8691406 13.7290039,34.8691406 L13.7641602,34.8691406 L13.2060547,34.2495117 L12.6655273,34.8691406 L12.6831055,34.8691406 C12.7885747,34.8691406 12.8647459,34.9020993 12.9116211,34.9680176 C12.9584963,35.0339359 12.9819336,35.1357415 12.9819336,35.2734375 C12.9819336,35.4375008 12.9460453,35.5583492 12.8742676,35.6359863 C12.8024899,35.7136234 12.6918953,35.7524414 12.5424805,35.7524414 L11.6064453,35.7524414 C11.4072256,35.7524414 11.2658696,35.7143558 11.182373,35.6381836 C11.0988765,35.5620113 11.0571289,35.4375009 11.0571289,35.2646484 C11.0571289,35.1035148 11.0974117,34.9826664 11.1779785,34.9020996 C11.2585453,34.8215328 11.3793937,34.78125 11.5405273,34.78125 L11.6240234,34.78125 L12.6655273,33.7265625 L11.6591797,32.6542969 L11.5229492,32.6542969 C11.3500968,32.6542969 11.219727,32.6147465 11.1318359,32.5356445 C11.0439449,32.4565426 11,32.3378914 11,32.1796875 C11,32.0068351 11.0439449,31.8823246 11.1318359,31.8061523 C11.219727,31.7299801 11.3618154,31.6918945 11.5581055,31.6918945 L12.621582,31.6918945 C12.7709968,31.6918945 12.8815914,31.7314449 12.9533691,31.8105469 C13.0251468,31.8896488 13.0610352,32.0097648 13.0610352,32.1708984 C13.0610352,32.3056647 13.0383303,32.4067379 12.9929199,32.4741211 C12.9475095,32.5415042 12.8779302,32.5751953 12.7841797,32.5751953 Z M17.9257812,32.1357422 C18.0283208,31.9570304 18.1733389,31.8208013 18.3608398,31.7270508 C18.5483408,31.6333003 18.7724596,31.5864258 19.0332031,31.5864258 C19.4960961,31.5864258 19.852782,31.7211901 20.1032715,31.9907227 C20.353761,32.2602553 20.4790039,32.6469701 20.4790039,33.1508789 L20.4790039,34.7900391 L20.5537109,34.7900391 C20.7089852,34.7900391 20.8269039,34.8303219 20.9074707,34.9108887 C20.9880375,34.9914555 21.0283203,35.1093742 21.0283203,35.2646484 C21.0283203,35.4375009 20.9865727,35.5620113 20.9030762,35.6381836 C20.8195797,35.7143558 20.6782237,35.7524414 20.4790039,35.7524414 L19.3891602,35.7524414 C19.1928701,35.7524414 19.0529789,35.7143558 18.9694824,35.6381836 C18.8859859,35.5620113 18.8442383,35.4375009 18.8442383,35.2646484 C18.8442383,35.1064445 18.8837887,34.9877934 18.9628906,34.9086914 C19.0419926,34.8295894 19.1606437,34.7900391 19.3188477,34.7900391 L19.3891602,34.7900391 L19.3891602,33.5112305 C19.3891602,33.1362286 19.343018,32.8762214 19.2507324,32.7312012 C19.1584468,32.5861809 19.0009777,32.5136719 18.7783203,32.5136719 C18.5439441,32.5136719 18.3432626,32.6081534 18.1762695,32.7971191 C18.0092765,32.9860849 17.9257812,33.2241197 17.9257812,33.5112305 L17.9257812,34.7900391 L17.9960938,34.7900391 C18.1542977,34.7900391 18.2736812,34.8303219 18.354248,34.9108887 C18.4348149,34.9914555 18.4750977,35.1093742 18.4750977,35.2646484 C18.4750977,35.4375009 18.4326176,35.5620113 18.3476562,35.6381836 C18.2626949,35.7143558 18.1220713,35.7524414 17.9257812,35.7524414 L16.8359375,35.7524414 C16.6337881,35.7524414 16.4916996,35.7150883 16.409668,35.6403809 C16.3276363,35.5656735 16.2866211,35.4404306 16.2866211,35.2646484 C16.2866211,35.1093742 16.3269039,34.9914555 16.4074707,34.9108887 C16.4880375,34.8303219 16.6059563,34.7900391 16.7612305,34.7900391 L16.8359375,34.7900391 L16.8359375,30.9755859 L16.7612305,30.9755859 C16.6059563,30.9755859 16.4865727,30.9338383 16.4030762,30.8503418 C16.3195797,30.7668453 16.277832,30.6459969 16.277832,30.487793 C16.277832,30.3149405 16.3203121,30.1904301 16.4052734,30.1142578 C16.4902348,30.0380856 16.6337881,30 16.8359375,30 L17.6621094,30 C17.7617192,30 17.8305662,30.0205076 17.8686523,30.0615234 C17.9067385,30.1025393 17.9257812,30.1787104 17.9257812,30.2900391 L17.9257812,32.1357422 Z M23.730957,31.9379883 L25.0712891,31.9379883 C25.2734385,31.9379883 25.4169918,31.974609 25.5019531,32.0478516 C25.5869145,32.1210941 25.6293945,32.2426749 25.6293945,32.4125977 C25.6293945,32.5854501 25.5861821,32.7099606 25.4997559,32.7861328 C25.4133296,32.8623051 25.2705088,32.9003906 25.0712891,32.9003906 L23.730957,32.9003906 L23.730957,34.0253906 C23.730957,34.3417985 23.7792964,34.5585932 23.8759766,34.6757812 C23.9726567,34.7929693 24.1425769,34.8515625 24.3857422,34.8515625 C24.614259,34.8515625 24.8837875,34.7856452 25.1943359,34.6538086 C25.5048844,34.521972 25.7128901,34.4560547 25.8183594,34.4560547 C25.9384772,34.4560547 26.0417476,34.5036616 26.1281738,34.598877 C26.2146,34.6940923 26.2578125,34.8090814 26.2578125,34.9438477 C26.2578125,35.1694347 26.0534688,35.3752432 25.6447754,35.5612793 C25.2360819,35.7473154 24.7724635,35.840332 24.2539062,35.840332 C23.9521469,35.840332 23.6870129,35.7993168 23.4584961,35.7172852 C23.2299793,35.6352535 23.0498053,35.5180672 22.9179688,35.3657227 C22.8212886,35.2485346 22.7524416,35.107911 22.7114258,34.9438477 C22.67041,34.7797843 22.6499023,34.5058613 22.6499023,34.1220703 L22.6499023,32.9003906 L22.2368164,32.9003906 C22.0375967,32.9003906 21.8962407,32.8623051 21.8127441,32.7861328 C21.7292476,32.7099606 21.6875,32.5854501 21.6875,32.4125977 C21.6875,32.2397452 21.7285152,32.117432 21.8105469,32.0456543 C21.8925785,31.9738766 22.034667,31.9379883 22.2368164,31.9379883 L22.6499023,31.9379883 L22.6499023,30.909668 C22.6499023,30.7075185 22.69165,30.5654301 22.7751465,30.4833984 C22.858643,30.4013668 22.9970693,30.3603516 23.1904297,30.3603516 C23.38379,30.3603516 23.5222164,30.4013668 23.6057129,30.4833984 C23.6892094,30.5654301 23.730957,30.7075185 23.730957,30.909668 L23.730957,31.9379883 Z M29.7163086,31.9907227 C29.8393561,31.8588861 29.9814445,31.7585453 30.1425781,31.6896973 C30.3037117,31.6208493 30.4765616,31.5864258 30.6611328,31.5864258 C31.0595723,31.5864258 31.3466788,31.7043445 31.5224609,31.9401855 C31.6982431,32.1760266 31.7861328,32.570798 31.7861328,33.1245117 L31.7861328,34.7900391 L31.8476562,34.7900391 C31.9853523,34.7900391 32.0886227,34.8303219 32.1574707,34.9108887 C32.2263187,34.9914555 32.2607422,35.1093742 32.2607422,35.2646484 C32.2607422,35.4404306 32.2248539,35.5656735 32.1530762,35.6403809 C32.0812985,35.7150883 31.9589852,35.7524414 31.7861328,35.7524414 L31.0390625,35.7524414 C30.9599605,35.7524414 30.8984377,35.7355959 30.8544922,35.7019043 C30.8105467,35.6682127 30.7885742,35.6220706 30.7885742,35.5634766 L30.7885742,33.0805664 C30.7885742,32.8842764 30.7578128,32.7377935 30.6962891,32.6411133 C30.6347653,32.5444331 30.5454107,32.4960938 30.4282227,32.4960938 C30.2817375,32.4960938 30.1682133,32.5612786 30.0876465,32.6916504 C30.0070797,32.8220221 29.9667969,33.0087878 29.9667969,33.2519531 L29.9667969,34.7900391 L30.0327148,34.7900391 C30.1674811,34.7900391 30.2700192,34.8303219 30.340332,34.9108887 C30.4106449,34.9914555 30.4458008,35.1093742 30.4458008,35.2646484 C30.4458008,35.4404306 30.4091801,35.5656735 30.3359375,35.6403809 C30.2626949,35.7150883 30.1396493,35.7524414 29.9667969,35.7524414 L29.2197266,35.7524414 C29.1406246,35.7524414 29.077637,35.7355959 29.0307617,35.7019043 C28.9838865,35.6682127 28.9604492,35.6220706 28.9604492,35.5634766 L28.9604492,33.0805664 C28.9604492,32.8842764 28.9311526,32.7377935 28.8725586,32.6411133 C28.8139646,32.5444331 28.7260748,32.4960938 28.6088867,32.4960938 C28.4624016,32.4960938 28.3474125,32.5620111 28.263916,32.6938477 C28.1804195,32.8256843 28.1386719,33.0117175 28.1386719,33.2519531 L28.1386719,34.7900391 L28.2045898,34.7900391 C28.3422858,34.7900391 28.4455563,34.8295894 28.5144043,34.9086914 C28.5832523,34.9877934 28.6176758,35.1064445 28.6176758,35.2646484 C28.6176758,35.4404306 28.5810551,35.5656735 28.5078125,35.6403809 C28.4345699,35.7150883 28.3115243,35.7524414 28.1386719,35.7524414 L27.1411133,35.7524414 C26.9711906,35.7524414 26.8496097,35.7143558 26.7763672,35.6381836 C26.7031246,35.5620113 26.6665039,35.4375009 26.6665039,35.2646484 C26.6665039,35.1093742 26.7009274,34.9914555 26.7697754,34.9108887 C26.8386234,34.8303219 26.9418938,34.7900391 27.0795898,34.7900391 L27.1411133,34.7900391 L27.1411133,32.6542969 L27.0795898,32.6542969 C26.9418938,32.6542969 26.8371586,32.6125492 26.7653809,32.5290527 C26.6936032,32.4455562 26.6577148,32.3261727 26.6577148,32.1708984 C26.6577148,32.0009757 26.695068,31.8786625 26.7697754,31.8039551 C26.8444828,31.7292477 26.9682609,31.6918945 27.1411133,31.6918945 L27.734375,31.6918945 C27.8544928,31.6918945 27.9357908,31.7160642 27.9782715,31.7644043 C28.0207522,31.8127444 28.0419922,31.905761 28.0419922,32.043457 C28.1503912,31.8940422 28.280761,31.780518 28.4331055,31.7028809 C28.58545,31.6252438 28.7553702,31.5864258 28.9428711,31.5864258 C29.1127938,31.5864258 29.2607416,31.6193844 29.3867188,31.6853027 C29.5126959,31.751221 29.6225581,31.8530267 29.7163086,31.9907227 Z M35.3764648,34.7900391 L36.3212891,34.7900391 C36.5234385,34.7900391 36.6655269,34.8266598 36.7475586,34.8999023 C36.8295903,34.9731449 36.8706055,35.0947257 36.8706055,35.2646484 C36.8706055,35.4375009 36.8288578,35.5620113 36.7453613,35.6381836 C36.6618648,35.7143558 36.5205088,35.7524414 36.3212891,35.7524414 L33.3417969,35.7524414 C33.1455068,35.7524414 33.0056157,35.7143558 32.9221191,35.6381836 C32.8386226,35.5620113 32.796875,35.4375009 32.796875,35.2646484 C32.796875,35.091796 32.8371578,34.9694828 32.9177246,34.8977051 C32.9982914,34.8259274 33.1396474,34.7900391 33.3417969,34.7900391 L34.2866211,34.7900391 L34.2866211,30.9755859 L33.8032227,30.9755859 C33.6040029,30.9755859 33.4611821,30.936768 33.3747559,30.8591309 C33.2883296,30.7814938 33.2451172,30.6577157 33.2451172,30.487793 C33.2451172,30.3149405 33.2875972,30.1904301 33.3725586,30.1142578 C33.45752,30.0380856 33.6010732,30 33.8032227,30 L35.1171875,30 C35.1992192,30 35.2629392,30.0168455 35.3083496,30.0505371 C35.35376,30.0842287 35.3764648,30.1303708 35.3764648,30.1889648 L35.3764648,34.7900391 Z" id="xhtml" fill="#FFFFFF"></path>
            <rect id="Rectangle-3" fill="#FFFFFF" x="21" y="17" width="7" height="8" rx="1"></rect>
            <circle id="Oval" fill="#F8D086" cx="24.5" cy="20.5" r="1.5"></circle>
            <rect id="Rectangle-4" fill="#F8D086" x="24" y="21" width="1" height="3" rx="0.5"></rect>
        </g>
    </g>
</svg>